#!OML:ASF \\sashay\E\Suitcase\Project 1\Capture day 1\Session 1\Male1.ASF
:FULLY-SPECIFIED
:DEGREES
375
root -0.0561529 17.3502 -31.6963 8.14014 -2.75262 -4.5281
lowerback 5.90643 2.66323 2.35714
upperback -0.481562 3.83005 2.89849
thorax -3.85389 1.8833 1.32454
lowerneck -23.7136 -2.09347 -4.65483
upperneck 9.1046 -1.01274 -2.22309
head 6.58722 -0.875164 -0.117418
rclavicle -1.5704e-014 -5.56597e-015
rhumerus -27.5985 -35.9518 -64.229
rradius 7.57432
rwrist 8.68783
rhand -20.2597 23.1556
rfingers 7.12502
rthumb 6.08905 -6.73685
lclavicle -1.5704e-014 -5.56597e-015
lhumerus -44.3215 7.5015 81.1352
lradius 26.7328
lwrist -9.70693
lhand -1.15716 40.6926
lfingers 7.12502
lthumb 24.4816 69.148
rfemur 12.5951 2.73253 26.4638
rtibia 6.31306
rfoot -11.4066 -9.30102
rtoes -2.30389
lfemur -33.8101 -1.95154 -13.7599
ltibia 26.4088
lfoot -7.94639 1.3496
ltoes 7.73904
376
root -0.0138826 17.3603 -31.581 7.91533 -2.64686 -4.29393
lowerback 6.19491 2.62141 2.40549
upperback -0.631482 3.78404 2.59689
thorax -4.1475 1.85228 0.972673
lowerneck -23.4225 -1.99093 -4.21254
upperneck 8.77642 -1.01056 -2.41914
head 6.4311 -0.866629 -0.2461
rclavicle -3.26007e-014 -1.86858e-014
rhumerus -27.8893 -36.0081 -64.1963
rradius 7.65761
rwrist 8.5536
rhand -20.2276 23.2144
rfingers 7.12502
rthumb 6.1201 -6.67722
lclavicle -3.26007e-014 -1.86858e-014
lhumerus -44.4617 7.41722 80.609
lradius 26.6211
lwrist -9.97818
lhand -0.450921 40.3642
lfingers 7.12502
lthumb 25.1584 68.7263
rfemur 11.8642 2.60981 26.0487
rtibia 8.89287
rfoot -11.8526 -9.23137
rtoes -3.38699
lfemur -33.254 -1.79022 -14.3428
ltibia 26.4613
lfoot -7.98139 0.52929
ltoes 9.55318
377
root 0.0228502 17.3717 -31.4684 7.6938 -2.47525 -4.07804
lowerback 6.27572 2.55496 2.19913
upperback -0.639738 3.67779 2.46044
thorax -4.20483 1.8021 0.952613
lowerneck -23.3114 -1.90876 -4.29726
upperneck 8.69011 -0.920134 -2.17858
head 6.38574 -0.801347 -0.141569
rclavicle -1.18277e-014 -3.4191e-014
rhumerus -27.7395 -36.0352 -64.2775
rradius 7.59936
rwrist 8.13635
rhand -19.7685 23.9478
rfingers 7.12502
rthumb 6.56331 -5.93048
lclavicle -1.18277e-014 -3.4191e-014
lhumerus -44.424 7.63732 80.2
lradius 26.4558
lwrist -10.3403
lhand -0.940659 39.6008
lfingers 7.12502
lthumb 24.6891 68.0279
rfemur 11.2995 2.4242 25.6965
rtibia 11.1751
rfoot -11.7474 -9.21967
rtoes -4.56083
lfemur -32.6593 -1.6061 -14.8725
ltibia 26.4931
lfoot -8.1428 -0.289129
ltoes 11.2384
378
root 0.0644165 17.3873 -31.3502 7.48125 -2.45043 -3.87797
lowerback 5.98664 2.59591 1.77567
upperback -0.423265 3.68615 2.54872
thorax -3.8496 1.82036 1.29769
lowerneck -23.3464 -2.25191 -3.81251
upperneck 8.25417 -1.41027 -3.04105
head 6.2452 -1.09001 -0.555301
rclavicle 6.95746e-016 7.95139e-016
rhumerus -27.5446 -36.0383 -64.0608
rradius 7.97216
rwrist 8.25989
rhand -19.7785 23.4174
rfingers 7.12502
rthumb 6.55362 -6.46124
lclavicle 6.95746e-016 7.95139e-016
lhumerus -43.9038 7.98788 80.3333
lradius 26.3036
lwrist -10.7569
lhand -0.94395 40.0209
lfingers 7.12502
lthumb 24.6859 68.4485
rfemur 10.6244 2.43719 25.3477
rtibia 13.467
rfoot -11.6035 -9.34281
rtoes -5.33008
lfemur -31.9557 -1.97149 -15.198
ltibia 26.4781
lfoot -8.37364 0.167249
ltoes 9.54955
379
root 0.105234 17.3981 -31.2319 7.29209 -2.32674 -3.67454
lowerback 5.81902 2.68 1.6109
upperback -0.384128 3.77483 2.42189
thorax -3.71755 1.86756 1.25966
lowerneck -23.5629 -2.22266 -4.48798
upperneck 8.96997 -1.28831 -1.96535
head 6.52139 -0.973143 -0.0900767
rclavicle -6.42074e-014 -7.95139e-015
rhumerus -27.8747 -36.2594 -63.5982
rradius 8.28148
rwrist 8.15669
rhand -19.2413 24.0658
rfingers 7.12502
rthumb 7.07226 -5.79604
lclavicle -6.42074e-014 -7.95139e-015
lhumerus -43.5376 7.82434 80.2669
lradius 26.1435
lwrist -10.9625
lhand -0.601568 41.0383
lfingers 7.12502
lthumb 25.0141 69.4206
rfemur 10.1212 2.14237 24.9219
rtibia 15.3666
rfoot -11.1325 -9.10195
rtoes -4.81528
lfemur -31.3464 -1.65996 -15.7364
ltibia 26.4673
lfoot -8.82503 -0.304456
ltoes 10.6152
380
root 0.143006 17.4125 -31.1107 7.029 -2.27232 -3.50213
lowerback 5.758 2.70656 1.33443
upperback -0.346051 3.78641 2.37297
thorax -3.65835 1.87881 1.36608
lowerneck -23.1948 -2.33839 -4.54238
upperneck 8.69651 -1.47774 -1.8211
head 6.37784 -1.04565 -0.0515121
rclavicle 1.90833e-014 1.35174e-014
rhumerus -27.7888 -36.3319 -63.4739
rradius 8.31938
rwrist 8.00264
rhand -18.7103 24.0069
rfingers 7.12502
rthumb 7.58474 -5.83715
lclavicle 1.90833e-014 1.35174e-014
lhumerus -43.2648 7.75458 80.2205
lradius 26.0892
lwrist -11.1479
lhand -0.210276 41.1685
lfingers 7.12502
lthumb 25.3889 69.4981
rfemur 9.77688 1.95638 24.5634
rtibia 17.3283
rfoot -10.7195 -8.84465
rtoes -4.22041
lfemur -30.5546 -1.6164 -16.1008
ltibia 26.3843
lfoot -8.96258 -0.430462
ltoes 11.0628
381
root 0.181797 17.4374 -30.9861 6.82272 -2.26571 -3.31828
lowerback 5.6594 2.72784 1.13434
upperback -0.387585 3.79505 2.24191
thorax -3.64988 1.88596 1.34541
lowerneck -23.264 -2.32109 -4.4848
upperneck 9.11191 -1.47669 -1.69117
head 6.52506 -1.0396 -0.0211896
rclavicle -2.74323e-014 1.66979e-014
rhumerus -28.0613 -36.2707 -63.2048
rradius 8.6048
rwrist 7.61092
rhand -18.4601 25.0224
rfingers 7.12502
rthumb 7.82623 -4.81274
lclavicle -2.74323e-014 1.66979e-014
lhumerus -43.3079 7.6107 80.0152
lradius 26.2996
lwrist -11.0983
lhand -0.253793 40.9781
lfingers 7.12502
lthumb 25.3473 69.3135
rfemur 9.17178 1.76288 24.1234
rtibia 19.4571
rfoot -10.0791 -8.60988
rtoes -4.35035
lfemur -29.7156 -1.48778 -16.5097
ltibia 26.2141
lfoot -9.35837 -0.582397
ltoes 12.6943
382
root 0.221517 17.4405 -30.864 6.58415 -2.43187 -3.14335
lowerback 5.80552 2.77191 0.844851
upperback -0.451908 3.83681 2.1723
thorax -3.81359 1.91121 1.42191
lowerneck -22.8741 -2.49688 -3.79575
upperneck 8.12498 -1.89759 -2.15229
head 6.13576 -1.2392 -0.318316
rclavicle -2.33075e-014 -5.56597e-015
rhumerus -27.802 -36.2657 -63.3331
rradius 8.47234
rwrist 7.38024
rhand -18.2706 25.1505
rfingers 7.12502
rthumb 8.00916 -4.67772
lclavicle -2.33075e-014 -5.56597e-015
lhumerus -43.241 7.65522 79.8853
lradius 26.4618
lwrist -11.1434
lhand 0.0891741 41.0099
lfingers 7.12502
lthumb 25.6758 69.2984
rfemur 8.49008 1.81311 23.7018
rtibia 21.6458
rfoot -9.41186 -8.57204
rtoes -4.04891
lfemur -28.8888 -1.14717 -17.0022
ltibia 25.9188
lfoot -9.7805 -0.539609
ltoes 9.19493
383
root 0.264355 17.4525 -30.7374 6.38158 -2.39426 -2.93397
lowerback 5.76402 2.74125 0.591643
upperback -0.481461 3.77552 2.0972
thorax -3.8307 1.88538 1.49239
lowerneck -23.7908 -2.39524 -3.8052
upperneck 9.7882 -1.68051 -2.06274
head 6.82319 -1.16107 -0.285932
rclavicle 3.25013e-014 2.78299e-015
rhumerus -28.1767 -36.0315 -63.0552
rradius 9.10178
rwrist 7.28014
rhand -18.3534 25.3111
rfingers 7.12502
rthumb 7.92922 -4.52018
lclavicle 3.25013e-014 2.78299e-015
lhumerus -43.1642 7.62847 79.8272
lradius 26.7014
lwrist -11.0027
lhand 0.382411 41.6439
lfingers 7.12502
lthumb 25.9566 69.8915
rfemur 7.84394 1.64792 23.2287
rtibia 23.8502
rfoot -8.51845 -8.35373
rtoes -3.6209
lfemur -28.1144 -0.7036 -17.5815
ltibia 25.6236
lfoot -9.92379 -0.927618
ltoes 8.38064
